<svg width="24" height="24" viewBox="0 0 24 24" fill="none" xmlns="http://www.w3.org/2000/svg">
<path d="M3 21.7999V2.1499H3.0625C3.10417 2.1499 3.16667 2.19157 3.25 2.2749L4.25 3.2749C4.33333 3.35824 4.41667 3.3999 4.5 3.3999C4.58333 3.3999 4.66667 3.35824 4.75 3.2749L5.75 2.2749C5.83333 2.19157 5.91667 2.1499 6 2.1499C6.08333 2.1499 6.16667 2.19157 6.25 2.2749L7.25 3.2749C7.33333 3.35824 7.41667 3.3999 7.5 3.3999C7.58333 3.3999 7.66667 3.35824 7.75 3.2749L8.75 2.2749C8.83333 2.19157 8.91667 2.1499 9 2.1499C9.08333 2.1499 9.16667 2.19157 9.25 2.2749L10.25 3.2749C10.3333 3.35824 10.4167 3.3999 10.5 3.3999C10.5833 3.3999 10.6667 3.35824 10.75 3.2749L11.75 2.2749C11.8333 2.19157 11.9167 2.1499 12 2.1499C12.0833 2.1499 12.1667 2.19157 12.25 2.2749L13.25 3.2749C13.3333 3.35824 13.4167 3.3999 13.5 3.3999C13.5833 3.3999 13.6667 3.35824 13.75 3.2749L14.75 2.2749C14.8333 2.19157 14.9167 2.1499 15 2.1499C15.0833 2.1499 15.1667 2.19157 15.25 2.2749L16.25 3.2749C16.3333 3.35824 16.4167 3.3999 16.5 3.3999C16.5833 3.3999 16.6667 3.35824 16.75 3.2749L17.75 2.2749C17.8333 2.19157 17.9167 2.1499 18 2.1499C18.0833 2.1499 18.1667 2.19157 18.25 2.2749L19.25 3.2749C19.3333 3.35824 19.4167 3.3999 19.5 3.3999C19.5833 3.3999 19.6667 3.35824 19.75 3.2749L20.75 2.2749C20.8333 2.19157 20.8958 2.1499 20.9375 2.1499H21V21.7999L20.9375 21.8249C20.8958 21.8416 20.8333 21.8082 20.75 21.7249L19.75 20.7249C19.6667 20.6416 19.5833 20.5999 19.5 20.5999C19.4167 20.5999 19.3333 20.6416 19.25 20.7249L18.25 21.7249C18.1667 21.8082 18.0833 21.8499 18 21.8499C17.9167 21.8499 17.8333 21.8082 17.75 21.7249L16.75 20.7249C16.6667 20.6416 16.5833 20.5999 16.5 20.5999C16.4167 20.5999 16.3333 20.6416 16.25 20.7249L15.25 21.7249C15.1667 21.8082 15.0833 21.8499 15 21.8499C14.9167 21.8499 14.8333 21.8082 14.75 21.7249L13.75 20.7249C13.6667 20.6416 13.5833 20.5999 13.5 20.5999C13.4167 20.5999 13.3333 20.6416 13.25 20.7249L12.25 21.7249C12.1667 21.8082 12.0833 21.8499 12 21.8499C11.9167 21.8499 11.8333 21.8082 11.75 21.7249L10.75 20.7249C10.6667 20.6416 10.5833 20.5999 10.5 20.5999C10.4167 20.5999 10.3333 20.6416 10.25 20.7249L9.25 21.7249C9.16667 21.8082 9.08333 21.8499 9 21.8499C8.91667 21.8499 8.83333 21.8082 8.75 21.7249L7.75 20.7249C7.66667 20.6416 7.58333 20.5999 7.5 20.5999C7.41667 20.5999 7.33333 20.6416 7.25 20.7249L6.25 21.7249C6.16667 21.8082 6.08333 21.8499 6 21.8499C5.91667 21.8499 5.83333 21.8082 5.75 21.7249L4.75 20.7249C4.66667 20.6416 4.58333 20.5999 4.5 20.5999C4.41667 20.5999 4.33333 20.6416 4.25 20.7249L3.25 21.7249C3.16667 21.8082 3.10417 21.8416 3.0625 21.8249L3 21.7999ZM6.675 16.5999H17.425C17.6417 16.5999 17.8208 16.5291 17.9625 16.3874C18.1042 16.2457 18.175 16.0666 18.175 15.8499C18.175 15.6332 18.1042 15.4541 17.9625 15.3124C17.8208 15.1707 17.6417 15.0999 17.425 15.0999H6.675C6.45833 15.0999 6.27917 15.1707 6.1375 15.3124C5.99583 15.4541 5.925 15.6332 5.925 15.8499C5.925 16.0666 5.99583 16.2457 6.1375 16.3874C6.27917 16.5291 6.45833 16.5999 6.675 16.5999ZM6.675 12.7499H17.425C17.6417 12.7499 17.8208 12.6791 17.9625 12.5374C18.1042 12.3957 18.175 12.2166 18.175 11.9999C18.175 11.7832 18.1042 11.6041 17.9625 11.4624C17.8208 11.3207 17.6417 11.2499 17.425 11.2499H6.675C6.45833 11.2499 6.27917 11.3207 6.1375 11.4624C5.99583 11.6041 5.925 11.7832 5.925 11.9999C5.925 12.2166 5.99583 12.3957 6.1375 12.5374C6.27917 12.6791 6.45833 12.7499 6.675 12.7499ZM6.675 8.8749H17.425C17.6417 8.8749 17.8208 8.80407 17.9625 8.6624C18.1042 8.52074 18.175 8.34157 18.175 8.1249C18.175 7.90824 18.1042 7.72907 17.9625 7.5874C17.8208 7.44574 17.6417 7.3749 17.425 7.3749H6.675C6.45833 7.3749 6.27917 7.44574 6.1375 7.5874C5.99583 7.72907 5.925 7.90824 5.925 8.1249C5.925 8.34157 5.99583 8.52074 6.1375 8.6624C6.27917 8.80407 6.45833 8.8749 6.675 8.8749Z" fill="#572F11"/>
</svg>
